<?xml version="1.0" encoding="UTF-8" ?>
<svg version="1.1" width="128" height="128" xmlns="http://www.w3.org/2000/svg" shape-rendering="crispEdges">
<rect x="24" y="20" width="20" height="12" fill="#AC3232" />
<rect x="84" y="20" width="20" height="12" fill="#AC3232" />
<rect x="20" y="24" width="4" height="48" fill="#AC3232" />
<rect x="44" y="24" width="4" height="16" fill="#AC3232" />
<rect x="80" y="24" width="4" height="16" fill="#AC3232" />
<rect x="104" y="24" width="4" height="48" fill="#AC3232" />
<rect x="16" y="28" width="4" height="36" fill="#AC3232" />
<rect x="48" y="28" width="4" height="16" fill="#AC3232" />
<rect x="76" y="28" width="4" height="16" fill="#AC3232" />
<rect x="108" y="28" width="4" height="36" fill="#AC3232" />
<rect x="12" y="32" width="4" height="20" fill="#AC3232" />
<rect x="24" y="32" width="4" height="4" fill="#AC3232" />
<rect x="40" y="32" width="4" height="4" fill="#AC3232" />
<rect x="52" y="32" width="4" height="16" fill="#AC3232" />
<rect x="72" y="32" width="4" height="16" fill="#AC3232" />
<rect x="84" y="32" width="4" height="4" fill="#AC3232" />
<rect x="100" y="32" width="4" height="4" fill="#AC3232" />
<rect x="112" y="32" width="4" height="20" fill="#AC3232" />
<rect x="56" y="36" width="4" height="16" fill="#AC3232" />
<rect x="68" y="36" width="4" height="16" fill="#AC3232" />
<rect x="60" y="40" width="8" height="16" fill="#AC3232" />
<rect x="24" y="52" width="4" height="24" fill="#AC3232" />
<rect x="100" y="52" width="4" height="24" fill="#AC3232" />
<rect x="28" y="60" width="4" height="20" fill="#AC3232" />
<rect x="96" y="60" width="4" height="20" fill="#AC3232" />
<rect x="32" y="68" width="4" height="16" fill="#AC3232" />
<rect x="92" y="68" width="4" height="16" fill="#AC3232" />
<rect x="36" y="76" width="4" height="12" fill="#AC3232" />
<rect x="88" y="76" width="4" height="12" fill="#AC3232" />
<rect x="40" y="80" width="8" height="12" fill="#AC3232" />
<rect x="80" y="80" width="8" height="12" fill="#AC3232" />
<rect x="48" y="84" width="4" height="12" fill="#AC3232" />
<rect x="76" y="84" width="4" height="12" fill="#AC3232" />
<rect x="52" y="88" width="8" height="12" fill="#AC3232" />
<rect x="68" y="88" width="8" height="12" fill="#AC3232" />
<rect x="60" y="92" width="8" height="12" fill="#AC3232" />
</svg>