<?xml version="1.0" encoding="UTF-8" ?>
<svg version="1.1" width="64" height="64" xmlns="http://www.w3.org/2000/svg" shape-rendering="crispEdges">
<rect x="30" y="4" width="4" height="6" fill="#696A6A" />
<rect x="28" y="6" width="2" height="6" fill="#696A6A" />
<rect x="34" y="6" width="2" height="6" fill="#696A6A" />
<rect x="26" y="8" width="2" height="6" fill="#696A6A" />
<rect x="36" y="8" width="2" height="6" fill="#696A6A" />
<rect x="24" y="10" width="2" height="6" fill="#696A6A" />
<rect x="38" y="10" width="2" height="6" fill="#696A6A" />
<rect x="22" y="12" width="2" height="6" fill="#696A6A" />
<rect x="40" y="12" width="2" height="6" fill="#696A6A" />
<rect x="20" y="14" width="2" height="6" fill="#696A6A" />
<rect x="42" y="14" width="2" height="6" fill="#696A6A" />
<rect x="18" y="16" width="2" height="6" fill="#696A6A" />
<rect x="44" y="16" width="2" height="6" fill="#696A6A" />
<rect x="16" y="18" width="2" height="6" fill="#696A6A" />
<rect x="46" y="18" width="2" height="6" fill="#696A6A" />
<rect x="14" y="20" width="2" height="6" fill="#696A6A" />
<rect x="48" y="20" width="2" height="6" fill="#696A6A" />
<rect x="12" y="22" width="2" height="6" fill="#696A6A" />
<rect x="50" y="22" width="2" height="6" fill="#696A6A" />
<rect x="10" y="24" width="2" height="6" fill="#696A6A" />
<rect x="52" y="24" width="2" height="6" fill="#696A6A" />
<rect x="8" y="26" width="2" height="12" fill="#696A6A" />
<rect x="54" y="26" width="2" height="12" fill="#696A6A" />
<rect x="6" y="28" width="2" height="8" fill="#696A6A" />
<rect x="28" y="28" width="8" height="8" fill="#696A6A" />
<rect x="56" y="28" width="2" height="8" fill="#696A6A" />
<rect x="4" y="30" width="2" height="4" fill="#696A6A" />
<rect x="58" y="30" width="2" height="4" fill="#696A6A" />
<rect x="10" y="34" width="2" height="6" fill="#696A6A" />
<rect x="52" y="34" width="2" height="6" fill="#696A6A" />
<rect x="12" y="36" width="2" height="6" fill="#696A6A" />
<rect x="50" y="36" width="2" height="6" fill="#696A6A" />
<rect x="14" y="38" width="2" height="6" fill="#696A6A" />
<rect x="48" y="38" width="2" height="6" fill="#696A6A" />
<rect x="16" y="40" width="2" height="6" fill="#696A6A" />
<rect x="46" y="40" width="2" height="6" fill="#696A6A" />
<rect x="18" y="42" width="2" height="6" fill="#696A6A" />
<rect x="44" y="42" width="2" height="6" fill="#696A6A" />
<rect x="20" y="44" width="2" height="6" fill="#696A6A" />
<rect x="42" y="44" width="2" height="6" fill="#696A6A" />
<rect x="22" y="46" width="2" height="6" fill="#696A6A" />
<rect x="40" y="46" width="2" height="6" fill="#696A6A" />
<rect x="24" y="48" width="2" height="6" fill="#696A6A" />
<rect x="38" y="48" width="2" height="6" fill="#696A6A" />
<rect x="26" y="50" width="2" height="6" fill="#696A6A" />
<rect x="36" y="50" width="2" height="6" fill="#696A6A" />
<rect x="28" y="52" width="2" height="6" fill="#696A6A" />
<rect x="34" y="52" width="2" height="6" fill="#696A6A" />
<rect x="30" y="54" width="4" height="6" fill="#696A6A" />
</svg>