<?xml version="1.0" encoding="UTF-8" ?>
<svg version="1.1" width="64" height="64" xmlns="http://www.w3.org/2000/svg" shape-rendering="crispEdges">
<rect x="2" y="2" width="16" height="6" fill="#639BFF" />
<rect x="46" y="2" width="16" height="6" fill="#639BFF" />
<rect x="2" y="8" width="6" height="10" fill="#639BFF" />
<rect x="56" y="8" width="6" height="10" fill="#639BFF" />
<rect x="24" y="12" width="16" height="6" fill="#639BFF" />
<rect x="20" y="14" width="4" height="6" fill="#639BFF" />
<rect x="40" y="14" width="4" height="6" fill="#639BFF" />
<rect x="18" y="16" width="2" height="6" fill="#639BFF" />
<rect x="44" y="16" width="2" height="6" fill="#639BFF" />
<rect x="16" y="18" width="2" height="6" fill="#639BFF" />
<rect x="24" y="18" width="2" height="2" fill="#639BFF" />
<rect x="38" y="18" width="2" height="2" fill="#639BFF" />
<rect x="46" y="18" width="2" height="6" fill="#639BFF" />
<rect x="14" y="20" width="2" height="8" fill="#639BFF" />
<rect x="20" y="20" width="2" height="2" fill="#639BFF" />
<rect x="42" y="20" width="2" height="2" fill="#639BFF" />
<rect x="48" y="20" width="2" height="8" fill="#639BFF" />
<rect x="12" y="22" width="2" height="20" fill="#639BFF" />
<rect x="28" y="22" width="8" height="4" fill="#639BFF" />
<rect x="50" y="22" width="2" height="20" fill="#639BFF" />
<rect x="10" y="24" width="2" height="16" fill="#639BFF" />
<rect x="26" y="24" width="2" height="6" fill="#639BFF" />
<rect x="36" y="24" width="2" height="6" fill="#639BFF" />
<rect x="52" y="24" width="2" height="16" fill="#639BFF" />
<rect x="24" y="26" width="2" height="12" fill="#639BFF" />
<rect x="28" y="26" width="2" height="2" fill="#639BFF" />
<rect x="34" y="26" width="2" height="2" fill="#639BFF" />
<rect x="38" y="26" width="2" height="12" fill="#639BFF" />
<rect x="8" y="28" width="2" height="8" fill="#639BFF" />
<rect x="22" y="28" width="2" height="8" fill="#639BFF" />
<rect x="40" y="28" width="2" height="8" fill="#639BFF" />
<rect x="54" y="28" width="2" height="8" fill="#639BFF" />
<rect x="30" y="30" width="4" height="4" fill="#639BFF" />
<rect x="26" y="34" width="2" height="6" fill="#639BFF" />
<rect x="36" y="34" width="2" height="6" fill="#639BFF" />
<rect x="14" y="36" width="2" height="8" fill="#639BFF" />
<rect x="28" y="36" width="2" height="6" fill="#639BFF" />
<rect x="34" y="36" width="2" height="6" fill="#639BFF" />
<rect x="48" y="36" width="2" height="8" fill="#639BFF" />
<rect x="30" y="38" width="4" height="4" fill="#639BFF" />
<rect x="16" y="40" width="2" height="6" fill="#639BFF" />
<rect x="46" y="40" width="2" height="6" fill="#639BFF" />
<rect x="18" y="42" width="4" height="6" fill="#639BFF" />
<rect x="42" y="42" width="4" height="6" fill="#639BFF" />
<rect x="22" y="44" width="4" height="6" fill="#639BFF" />
<rect x="38" y="44" width="4" height="6" fill="#639BFF" />
<rect x="2" y="46" width="6" height="16" fill="#639BFF" />
<rect x="26" y="46" width="12" height="6" fill="#639BFF" />
<rect x="56" y="46" width="6" height="16" fill="#639BFF" />
<rect x="20" y="48" width="2" height="2" fill="#639BFF" />
<rect x="42" y="48" width="2" height="2" fill="#639BFF" />
<rect x="24" y="50" width="2" height="2" fill="#639BFF" />
<rect x="38" y="50" width="2" height="2" fill="#639BFF" />
<rect x="8" y="56" width="10" height="6" fill="#639BFF" />
<rect x="46" y="56" width="10" height="6" fill="#639BFF" />
</svg>