<?xml version="1.0" encoding="UTF-8" ?>
<svg version="1.1" width="40" height="40" xmlns="http://www.w3.org/2000/svg" shape-rendering="crispEdges">
<rect x="6" y="2" width="4" height="4" fill="#892323" />
<rect x="30" y="2" width="4" height="4" fill="#892323" />
<rect x="4" y="4" width="2" height="4" fill="#892323" />
<rect x="10" y="4" width="4" height="4" fill="#892323" />
<rect x="26" y="4" width="4" height="4" fill="#892323" />
<rect x="34" y="4" width="2" height="4" fill="#892323" />
<rect x="2" y="6" width="2" height="16" fill="#892323" />
<rect x="6" y="6" width="4" height="2" fill="#A42F2F" />
<rect x="14" y="6" width="2" height="4" fill="#892323" />
<rect x="24" y="6" width="2" height="4" fill="#892323" />
<rect x="36" y="6" width="2" height="16" fill="#892323" />
<rect x="0" y="8" width="2" height="10" fill="#892323" />
<rect x="4" y="8" width="2" height="10" fill="#A42F2F" />
<rect x="6" y="8" width="4" height="10" fill="#A42A2A" />
<rect x="10" y="8" width="4" height="2" fill="#A42F2F" />
<rect x="16" y="8" width="2" height="4" fill="#892323" />
<rect x="22" y="8" width="2" height="4" fill="#892323" />
<rect x="38" y="8" width="2" height="10" fill="#892323" />
<rect x="10" y="10" width="4" height="16" fill="#A42A2A" />
<rect x="14" y="10" width="2" height="2" fill="#A42F2F" />
<rect x="18" y="10" width="4" height="4" fill="#892323" />
<rect x="14" y="12" width="2" height="18" fill="#A42A2A" />
<rect x="16" y="12" width="2" height="2" fill="#A42F2F" />
<rect x="16" y="14" width="2" height="18" fill="#A42A2A" />
<rect x="18" y="14" width="2" height="22" fill="#A42F2F" />
<rect x="20" y="14" width="2" height="26" fill="#892323" />
<rect x="4" y="18" width="2" height="8" fill="#892323" />
<rect x="6" y="18" width="2" height="4" fill="#A42F2F" />
<rect x="8" y="18" width="2" height="4" fill="#A42A2A" />
<rect x="34" y="18" width="2" height="8" fill="#892323" />
<rect x="6" y="22" width="2" height="6" fill="#892323" />
<rect x="8" y="22" width="2" height="4" fill="#A42F2F" />
<rect x="32" y="22" width="2" height="6" fill="#892323" />
<rect x="8" y="26" width="2" height="4" fill="#892323" />
<rect x="10" y="26" width="2" height="2" fill="#A42F2F" />
<rect x="12" y="26" width="2" height="2" fill="#A42A2A" />
<rect x="30" y="26" width="2" height="4" fill="#892323" />
<rect x="10" y="28" width="2" height="4" fill="#892323" />
<rect x="12" y="28" width="2" height="2" fill="#A42F2F" />
<rect x="28" y="28" width="2" height="4" fill="#892323" />
<rect x="12" y="30" width="2" height="4" fill="#892323" />
<rect x="14" y="30" width="2" height="2" fill="#A42F2F" />
<rect x="26" y="30" width="2" height="4" fill="#892323" />
<rect x="14" y="32" width="2" height="4" fill="#892323" />
<rect x="16" y="32" width="2" height="2" fill="#A42F2F" />
<rect x="24" y="32" width="2" height="4" fill="#892323" />
<rect x="16" y="34" width="2" height="4" fill="#892323" />
<rect x="22" y="34" width="2" height="4" fill="#892323" />
<rect x="18" y="36" width="2" height="4" fill="#892323" />
</svg>