<?xml version="1.0" encoding="UTF-8" ?>
<svg version="1.1" width="64" height="64" xmlns="http://www.w3.org/2000/svg" shape-rendering="crispEdges">
<rect x="2" y="2" width="60" height="4" fill="#639BFF" />
<rect x="2" y="6" width="6" height="2" fill="#639BFF" />
<rect x="56" y="6" width="6" height="2" fill="#639BFF" />
<rect x="2" y="8" width="4" height="54" fill="#639BFF" />
<rect x="58" y="8" width="4" height="54" fill="#639BFF" />
<rect x="10" y="10" width="44" height="2" fill="#639BFF" />
<rect x="10" y="12" width="2" height="42" fill="#639BFF" />
<rect x="52" y="12" width="2" height="42" fill="#639BFF" />
<rect x="16" y="16" width="2" height="2" fill="#639BFF" />
<rect x="46" y="16" width="2" height="2" fill="#639BFF" />
<rect x="18" y="18" width="28" height="4" fill="#639BFF" />
<rect x="18" y="22" width="4" height="24" fill="#639BFF" />
<rect x="42" y="22" width="4" height="24" fill="#639BFF" />
<rect x="16" y="24" width="2" height="14" fill="#639BFF" />
<rect x="46" y="24" width="2" height="14" fill="#639BFF" />
<rect x="14" y="26" width="2" height="10" fill="#639BFF" />
<rect x="48" y="26" width="2" height="10" fill="#639BFF" />
<rect x="12" y="28" width="2" height="6" fill="#639BFF" />
<rect x="50" y="28" width="2" height="6" fill="#639BFF" />
<rect x="30" y="30" width="4" height="4" fill="#639BFF" />
<rect x="22" y="42" width="20" height="4" fill="#639BFF" />
<rect x="16" y="46" width="2" height="2" fill="#639BFF" />
<rect x="46" y="46" width="2" height="2" fill="#639BFF" />
<rect x="12" y="52" width="40" height="2" fill="#639BFF" />
<rect x="6" y="56" width="2" height="6" fill="#639BFF" />
<rect x="56" y="56" width="2" height="6" fill="#639BFF" />
<rect x="8" y="58" width="48" height="4" fill="#639BFF" />
</svg>