<?xml version="1.0" encoding="UTF-8" ?>
<svg version="1.1" width="128" height="128" xmlns="http://www.w3.org/2000/svg" shape-rendering="crispEdges">
<rect x="92" y="6" width="5" height="6" fill="#696A6A" />
<rect x="91" y="7" width="1" height="9" fill="#696A6A" />
<rect x="97" y="7" width="1" height="8" fill="#696A6A" />
<rect x="98" y="8" width="1" height="8" fill="#696A6A" />
<rect x="90" y="9" width="1" height="8" fill="#696A6A" />
<rect x="99" y="9" width="1" height="8" fill="#696A6A" />
<rect x="89" y="10" width="1" height="8" fill="#696A6A" />
<rect x="100" y="10" width="1" height="8" fill="#696A6A" />
<rect x="11" y="11" width="4" height="5" fill="#696A6A" />
<rect x="88" y="11" width="1" height="9" fill="#696A6A" />
<rect x="9" y="12" width="2" height="7" fill="#696A6A" />
<rect x="15" y="12" width="1" height="7" fill="#696A6A" />
<rect x="92" y="12" width="2" height="1" fill="#696A6A" />
<rect x="96" y="12" width="1" height="1" fill="#696A6A" />
<rect x="101" y="12" width="1" height="7" fill="#696A6A" />
<rect x="8" y="13" width="1" height="9" fill="#696A6A" />
<rect x="16" y="13" width="1" height="8" fill="#696A6A" />
<rect x="87" y="13" width="1" height="8" fill="#696A6A" />
<rect x="92" y="13" width="1" height="1" fill="#696A6A" />
<rect x="102" y="13" width="1" height="7" fill="#696A6A" />
<rect x="17" y="14" width="1" height="8" fill="#696A6A" />
<rect x="86" y="14" width="1" height="8" fill="#696A6A" />
<rect x="103" y="14" width="1" height="7" fill="#696A6A" />
<rect x="7" y="15" width="1" height="9" fill="#696A6A" />
<rect x="18" y="15" width="1" height="8" fill="#696A6A" />
<rect x="85" y="15" width="1" height="17" fill="#696A6A" />
<rect x="104" y="15" width="1" height="8" fill="#696A6A" />
<rect x="6" y="16" width="1" height="9" fill="#696A6A" />
<rect x="11" y="16" width="1" height="2" fill="#696A6A" />
<rect x="13" y="16" width="2" height="1" fill="#696A6A" />
<rect x="19" y="16" width="1" height="8" fill="#696A6A" />
<rect x="105" y="16" width="1" height="8" fill="#696A6A" />
<rect x="14" y="17" width="1" height="1" fill="#696A6A" />
<rect x="84" y="17" width="1" height="14" fill="#696A6A" />
<rect x="106" y="17" width="1" height="16" fill="#696A6A" />
<rect x="5" y="18" width="1" height="18" fill="#696A6A" />
<rect x="20" y="18" width="1" height="14" fill="#696A6A" />
<rect x="83" y="18" width="1" height="11" fill="#696A6A" />
<rect x="107" y="18" width="1" height="14" fill="#696A6A" />
<rect x="4" y="19" width="1" height="15" fill="#696A6A" />
<rect x="9" y="19" width="1" height="2" fill="#696A6A" />
<rect x="21" y="19" width="1" height="11" fill="#696A6A" />
<rect x="82" y="19" width="1" height="9" fill="#696A6A" />
<rect x="22" y="20" width="1" height="9" fill="#696A6A" />
<rect x="108" y="20" width="1" height="11" fill="#696A6A" />
<rect x="3" y="21" width="1" height="11" fill="#696A6A" />
<rect x="23" y="21" width="1" height="7" fill="#696A6A" />
<rect x="81" y="21" width="1" height="6" fill="#696A6A" />
<rect x="109" y="21" width="1" height="9" fill="#696A6A" />
<rect x="2" y="22" width="1" height="8" fill="#696A6A" />
<rect x="24" y="22" width="1" height="4" fill="#696A6A" />
<rect x="80" y="22" width="1" height="4" fill="#696A6A" />
<rect x="110" y="22" width="1" height="6" fill="#696A6A" />
<rect x="111" y="23" width="1" height="4" fill="#696A6A" />
<rect x="1" y="24" width="1" height="4" fill="#696A6A" />
<rect x="19" y="25" width="1" height="8" fill="#696A6A" />
<rect x="62" y="25" width="4" height="22" fill="#9BADB7" />
<rect x="86" y="25" width="1" height="8" fill="#696A6A" />
<rect x="18" y="26" width="1" height="9" fill="#696A6A" />
<rect x="61" y="26" width="1" height="25" fill="#9BADB7" />
<rect x="66" y="26" width="1" height="25" fill="#9BADB7" />
<rect x="87" y="26" width="1" height="8" fill="#696A6A" />
<rect x="6" y="27" width="1" height="11" fill="#696A6A" />
<rect x="17" y="27" width="1" height="9" fill="#696A6A" />
<rect x="105" y="27" width="1" height="7" fill="#696A6A" />
<rect x="88" y="28" width="1" height="7" fill="#696A6A" />
<rect x="104" y="28" width="1" height="8" fill="#696A6A" />
<rect x="7" y="29" width="1" height="11" fill="#696A6A" />
<rect x="16" y="29" width="1" height="9" fill="#696A6A" />
<rect x="89" y="29" width="1" height="7" fill="#696A6A" />
<rect x="103" y="29" width="1" height="8" fill="#696A6A" />
<rect x="15" y="30" width="1" height="9" fill="#696A6A" />
<rect x="90" y="30" width="1" height="7" fill="#696A6A" />
<rect x="102" y="30" width="1" height="8" fill="#696A6A" />
<rect x="8" y="31" width="1" height="11" fill="#696A6A" />
<rect x="91" y="31" width="1" height="8" fill="#696A6A" />
<rect x="101" y="31" width="1" height="8" fill="#696A6A" />
<rect x="14" y="32" width="1" height="8" fill="#696A6A" />
<rect x="92" y="32" width="1" height="8" fill="#696A6A" />
<rect x="9" y="33" width="1" height="10" fill="#696A6A" />
<rect x="13" y="33" width="1" height="9" fill="#696A6A" />
<rect x="58" y="33" width="3" height="18" fill="#9BADB7" />
<rect x="67" y="33" width="3" height="18" fill="#9BADB7" />
<rect x="93" y="33" width="1" height="8" fill="#696A6A" />
<rect x="100" y="33" width="1" height="8" fill="#696A6A" />
<rect x="57" y="34" width="1" height="29" fill="#9BADB7" />
<rect x="70" y="34" width="1" height="29" fill="#9BADB7" />
<rect x="94" y="34" width="1" height="8" fill="#696A6A" />
<rect x="99" y="34" width="1" height="8" fill="#696A6A" />
<rect x="10" y="35" width="1" height="8" fill="#696A6A" />
<rect x="12" y="35" width="1" height="8" fill="#696A6A" />
<rect x="98" y="35" width="1" height="8" fill="#696A6A" />
<rect x="11" y="36" width="1" height="7" fill="#696A6A" />
<rect x="95" y="36" width="1" height="7" fill="#696A6A" />
<rect x="97" y="36" width="1" height="7" fill="#696A6A" />
<rect x="42" y="37" width="8" height="18" fill="#9BADB7" />
<rect x="78" y="37" width="8" height="18" fill="#9BADB7" />
<rect x="96" y="37" width="1" height="6" fill="#696A6A" />
<rect x="41" y="38" width="1" height="16" fill="#9BADB7" />
<rect x="50" y="38" width="1" height="24" fill="#9BADB7" />
<rect x="77" y="38" width="1" height="24" fill="#9BADB7" />
<rect x="86" y="38" width="1" height="16" fill="#9BADB7" />
<rect x="38" y="41" width="3" height="10" fill="#9BADB7" />
<rect x="51" y="41" width="3" height="18" fill="#9BADB7" />
<rect x="74" y="41" width="3" height="18" fill="#9BADB7" />
<rect x="87" y="41" width="3" height="10" fill="#9BADB7" />
<rect x="37" y="42" width="1" height="8" fill="#9BADB7" />
<rect x="54" y="42" width="1" height="21" fill="#9BADB7" />
<rect x="73" y="42" width="1" height="21" fill="#9BADB7" />
<rect x="90" y="42" width="1" height="8" fill="#9BADB7" />
<rect x="55" y="45" width="2" height="10" fill="#9BADB7" />
<rect x="71" y="45" width="2" height="10" fill="#9BADB7" />
<rect x="62" y="47" width="1" height="3" fill="#9BADB7" />
<rect x="65" y="47" width="1" height="3" fill="#9BADB7" />
<rect x="58" y="51" width="1" height="11" fill="#9BADB7" />
<rect x="69" y="51" width="1" height="11" fill="#9BADB7" />
<rect x="59" y="53" width="3" height="6" fill="#9BADB7" />
<rect x="66" y="53" width="3" height="6" fill="#9BADB7" />
<rect x="62" y="54" width="1" height="4" fill="#9BADB7" />
<rect x="65" y="54" width="1" height="4" fill="#9BADB7" />
<rect x="45" y="55" width="5" height="8" fill="#9BADB7" />
<rect x="78" y="55" width="5" height="8" fill="#9BADB7" />
<rect x="34" y="57" width="11" height="14" fill="#9BADB7" />
<rect x="55" y="57" width="2" height="6" fill="#9BADB7" />
<rect x="71" y="57" width="2" height="6" fill="#9BADB7" />
<rect x="83" y="57" width="11" height="14" fill="#9BADB7" />
<rect x="33" y="58" width="1" height="12" fill="#9BADB7" />
<rect x="94" y="58" width="1" height="12" fill="#9BADB7" />
<rect x="53" y="59" width="1" height="3" fill="#9BADB7" />
<rect x="74" y="59" width="1" height="3" fill="#9BADB7" />
<rect x="26" y="61" width="7" height="6" fill="#9BADB7" />
<rect x="95" y="61" width="7" height="6" fill="#9BADB7" />
<rect x="25" y="62" width="1" height="4" fill="#9BADB7" />
<rect x="102" y="62" width="1" height="4" fill="#9BADB7" />
<rect x="45" y="63" width="2" height="28" fill="#9BADB7" />
<rect x="81" y="63" width="2" height="28" fill="#9BADB7" />
<rect x="47" y="65" width="3" height="26" fill="#9BADB7" />
<rect x="54" y="65" width="4" height="6" fill="#9BADB7" />
<rect x="70" y="65" width="4" height="6" fill="#9BADB7" />
<rect x="78" y="65" width="3" height="26" fill="#9BADB7" />
<rect x="50" y="66" width="1" height="24" fill="#9BADB7" />
<rect x="53" y="66" width="1" height="21" fill="#9BADB7" />
<rect x="58" y="66" width="1" height="29" fill="#9BADB7" />
<rect x="69" y="66" width="1" height="29" fill="#9BADB7" />
<rect x="74" y="66" width="1" height="21" fill="#9BADB7" />
<rect x="77" y="66" width="1" height="24" fill="#9BADB7" />
<rect x="51" y="69" width="2" height="18" fill="#9BADB7" />
<rect x="59" y="69" width="3" height="6" fill="#9BADB7" />
<rect x="66" y="69" width="3" height="6" fill="#9BADB7" />
<rect x="75" y="69" width="2" height="18" fill="#9BADB7" />
<rect x="62" y="70" width="1" height="4" fill="#9BADB7" />
<rect x="65" y="70" width="1" height="4" fill="#9BADB7" />
<rect x="54" y="71" width="1" height="15" fill="#9BADB7" />
<rect x="57" y="71" width="1" height="23" fill="#9BADB7" />
<rect x="70" y="71" width="1" height="23" fill="#9BADB7" />
<rect x="73" y="71" width="1" height="15" fill="#9BADB7" />
<rect x="42" y="73" width="3" height="18" fill="#9BADB7" />
<rect x="55" y="73" width="2" height="10" fill="#9BADB7" />
<rect x="71" y="73" width="2" height="10" fill="#9BADB7" />
<rect x="83" y="73" width="3" height="18" fill="#9BADB7" />
<rect x="41" y="74" width="1" height="16" fill="#9BADB7" />
<rect x="86" y="74" width="1" height="16" fill="#9BADB7" />
<rect x="38" y="77" width="3" height="10" fill="#9BADB7" />
<rect x="59" y="77" width="3" height="18" fill="#9BADB7" />
<rect x="66" y="77" width="3" height="18" fill="#9BADB7" />
<rect x="87" y="77" width="3" height="10" fill="#9BADB7" />
<rect x="37" y="78" width="1" height="8" fill="#9BADB7" />
<rect x="62" y="78" width="1" height="25" fill="#9BADB7" />
<rect x="65" y="78" width="1" height="25" fill="#9BADB7" />
<rect x="90" y="78" width="1" height="8" fill="#9BADB7" />
<rect x="63" y="81" width="2" height="22" fill="#9BADB7" />
<rect x="8" y="88" width="6" height="5" fill="#696A6A" />
<rect x="14" y="89" width="1" height="6" fill="#696A6A" />
<rect x="7" y="90" width="1" height="11" fill="#696A6A" />
<rect x="15" y="90" width="2" height="6" fill="#696A6A" />
<rect x="17" y="91" width="1" height="6" fill="#696A6A" />
<rect x="6" y="92" width="1" height="16" fill="#696A6A" />
<rect x="18" y="92" width="1" height="23" fill="#696A6A" />
<rect x="8" y="93" width="3" height="2" fill="#696A6A" />
<rect x="12" y="93" width="2" height="1" fill="#696A6A" />
<rect x="19" y="93" width="2" height="19" fill="#696A6A" />
<rect x="5" y="94" width="1" height="13" fill="#696A6A" />
<rect x="21" y="94" width="1" height="13" fill="#696A6A" />
<rect x="8" y="95" width="2" height="2" fill="#696A6A" />
<rect x="22" y="95" width="1" height="6" fill="#696A6A" />
<rect x="61" y="95" width="1" height="7" fill="#9BADB7" />
<rect x="66" y="95" width="1" height="7" fill="#9BADB7" />
<rect x="4" y="96" width="1" height="10" fill="#696A6A" />
<rect x="16" y="96" width="1" height="1" fill="#696A6A" />
<rect x="8" y="97" width="1" height="2" fill="#696A6A" />
<rect x="3" y="98" width="1" height="8" fill="#696A6A" />
<rect x="2" y="100" width="1" height="5" fill="#696A6A" />
<rect x="7" y="102" width="1" height="7" fill="#696A6A" />
<rect x="8" y="103" width="1" height="6" fill="#696A6A" />
<rect x="9" y="104" width="1" height="6" fill="#696A6A" />
<rect x="17" y="104" width="1" height="11" fill="#696A6A" />
<rect x="10" y="105" width="2" height="6" fill="#696A6A" />
<rect x="12" y="106" width="1" height="6" fill="#696A6A" />
<rect x="13" y="107" width="2" height="6" fill="#696A6A" />
<rect x="15" y="108" width="1" height="6" fill="#696A6A" />
<rect x="16" y="109" width="1" height="6" fill="#696A6A" />
<rect x="19" y="112" width="1" height="3" fill="#696A6A" />
<rect x="14" y="113" width="1" height="1" fill="#696A6A" />
</svg>